:SAMPLES-PER-SECOND 30
:FULLY-SPECIFIED
:DEGREES
286
root  -66.2962 41.317 -2.11962 -13.9369 -78.2367 15.5986
RightUpLeg  -7.8563 -11.411 -6.04387
RightLeg  12.2364 -14.8832 3.13962
RightFoot  -3.97015 0.160183 -2.95601
RightToes  0.000481921 0.542163 -0.142578
Spine  6.55329 -1.1038 2.71548
Spine1  8.23997 -2.10587 4.5519
HEad  -6.31135 -5.73118 10.4021
LeftShoulder1  10.4647 -14.6382 -50.3588
LeftArm  -8.35029 14.9962 -24.4205
LeftForeArm  47.2509 -47.6216 -8.87737
LeftHand  -0.25398 0.0180481 5.50724
RightShoulder  4.79942 8.49993 34.0351
RightArm  3.25676 -1.74998 36.4076
RightForeArm  4.55591 24.7749 5.06887
RightHand  -1.00524 3.07863 -14.0041
LeftUpLeg  -12.3197 8.0193 0.802913
LeftLeg  20.7949 5.15974 2.54002
LeftFoot  -6.0453 0.381963 -7.43281
LeftToes  1.06246e-005 4.65868e-005 -8.65513e-006
287
root  -66.5763 41.3532 -2.09048 -13.8902 -79.1619 15.5951
RightUpLeg  -7.24669 -10.9985 -5.69857
RightLeg  11.4796 -14.4486 3.315
RightFoot  -3.92223 0.165933 -3.0327
RightToes  0.000481921 0.542163 -0.142578
Spine  6.18708 -0.998513 3.10398
Spine1  8.52956 -1.9238 4.1127
HEad  -6.86925 -4.88506 9.44999
LeftShoulder1  10.5029 -14.6545 -50.4958
LeftArm  -8.94818 14.8565 -24.3328
LeftForeArm  46.485 -47.2256 -8.78413
LeftHand  -0.25398 0.0180481 5.50724
RightShoulder  4.9371 8.67331 34.5868
RightArm  3.74487 -2.63705 36.7671
RightForeArm  6.52676 24.3122 4.85798
RightHand  -0.910252 2.9936 -12.8465
LeftUpLeg  -10.9327 7.43699 0.962877
LeftLeg  14.2615 2.30654 0.745519
LeftFoot  -4.931 0.464767 -7.79454
LeftToes  1.06246e-005 4.65868e-005 -8.65513e-006
288
root  -66.8907 41.3828 -2.01576 -13.0231 -80.5321 14.6404
RightUpLeg  -6.37849 -10.494 -5.17292
RightLeg  10.4934 -13.6787 3.62868
RightFoot  -3.8129 0.171998 -3.10641
RightToes  0.000481921 0.542163 -0.142578
Spine  5.46248 -0.924023 3.49325
Spine1  9.23053 -1.80757 3.77965
HEad  -7.10162 -3.65308 8.16735
LeftShoulder1  10.4706 -14.5187 -50.7175
LeftArm  -9.20491 14.9752 -24.0826
LeftForeArm  45.5488 -46.2061 -8.48256
LeftHand  -0.25398 0.0180481 5.50724
RightShoulder  5.22662 9.02057 35.7547
RightArm  3.51829 -3.29469 36.0911
RightForeArm  8.30574 23.2992 4.58821
RightHand  -0.883269 3.25398 -12.1211
LeftUpLeg  -9.3254 5.50818 1.769
LeftLeg  9.1363 2.70429 -0.601414
LeftFoot  -2.50614 0.464584 -5.88704
LeftToes  1.06246e-005 4.65868e-005 -8.65513e-006
289
root  -67.2223 41.4183 -1.91565 -12.201 -82.014 13.625
RightUpLeg  -5.32245 -9.94645 -4.69311
RightLeg  9.42206 -12.8037 3.88117
RightFoot  -3.70169 0.173234 -3.10118
RightToes  0.000481921 0.542163 -0.142578
Spine  4.66191 -0.846999 3.20783
Spine1  9.94429 -1.9263 4.30726
HEad  -6.99258 -2.14773 6.29573
LeftShoulder1  10.3557 -14.2315 -50.9681
LeftArm  -8.91744 15.2757 -23.5639
LeftForeArm  45.3049 -44.395 -7.88983
LeftHand  -0.25398 0.0180481 5.50724
RightShoulder  5.47969 9.36634 36.5832
RightArm  1.56174 -3.73304 34.7604
RightForeArm  10.0113 21.4168 4.4911
RightHand  -0.928993 3.59665 -12.2706
LeftUpLeg  -7.95398 3.95071 2.38641
LeftLeg  6.62799 4.79988 -1.12037
LeftFoot  -0.450849 0.27531 -2.82686
LeftToes  1.06246e-005 4.65868e-005 -8.65513e-006
290
root  -67.5418 41.4604 -1.82076 -12.405 -83.2425 13.6405
RightUpLeg  -4.3871 -9.4675 -4.38793
RightLeg  8.60508 -12.074 3.86991
RightFoot  -3.58281 0.169968 -3.02629
RightToes  0.000481921 0.542163 -0.142578
Spine  4.0031 -0.738847 2.25077
Spine1  10.2439 -2.15431 5.41037
HEad  -6.91525 -0.811609 4.22962
LeftShoulder1  10.0203 -13.8758 -50.3317
LeftArm  -8.06021 15.5246 -22.8736
LeftForeArm  44.8653 -40.9891 -6.87457
LeftHand  -0.25398 0.0180481 5.50724
RightShoulder  5.49216 9.38201 36.6242
RightArm  -3.53211 -4.26897 33.1646
RightForeArm  12.1918 18.8347 4.67515
RightHand  -1.00172 3.84048 -12.8748
LeftUpLeg  -6.92247 3.70371 2.62942
LeftLeg  6.19417 6.34994 -1.00403
LeftFoot  0.0611202 0.135072 -1.34687
LeftToes  1.06246e-005 4.65868e-005 -8.65513e-006
291
root  -67.8379 41.501 -1.74257 -14.4827 -84.2157 15.6109
RightUpLeg  -3.74463 -9.14877 -4.29273
RightLeg  8.18123 -11.4031 3.67151
RightFoot  -3.49641 0.161659 -2.87751
RightToes  0.000481921 0.542163 -0.142578
Spine  3.47606 -0.542634 1.27125
Spine1  9.99416 -2.14869 6.18595
HEad  -6.91249 0.00813142 2.47744
LeftShoulder1  9.51798 -13.5943 -48.5998
LeftArm  -6.92438 15.6202 -21.5555
LeftForeArm  42.2287 -35.4254 -5.51738
LeftHand  -0.25398 0.0180481 5.50724
RightShoulder  5.22346 8.98062 35.8593
RightArm  -10.4656 -5.33022 31.1632
RightForeArm  13.6691 16.2642 4.68687
RightHand  -1.06136 4.04603 -13.3373
LeftUpLeg  -5.9239 4.05443 2.86156
LeftLeg  5.95343 7.05908 -1.14726
LeftFoot  -0.294738 0.174517 -1.78816
LeftToes  1.06246e-005 4.65868e-005 -8.65513e-006
292
root  -68.125 41.5346 -1.66157 -18.9803 -85.1562 19.9912
RightUpLeg  -3.17149 -8.9965 -4.4085
RightLeg  7.94254 -10.5225 3.52187
RightFoot  -3.53113 0.145049 -2.60838
RightToes  0.000481921 0.542163 -0.142578
Spine  3.03989 -0.324634 0.924672
Spine1  9.30754 -1.74947 5.75895
HEad  -6.58789 0.489262 1.282
LeftShoulder1  8.93336 -13.3993 -46.0944
LeftArm  -5.95147 15.801 -19.1967
LeftForeArm  36.9662 -28.3048 -4.10287
LeftHand  -0.25398 0.0180481 5.50724
RightShoulder  4.8481 8.42383 34.6905
RightArm  -15.982 -6.79487 28.1218
RightForeArm  12.8367 13.9555 4.39786
RightHand  -1.11489 4.25601 -13.6992
LeftUpLeg  -4.7151 4.51075 3.13075
LeftLeg  5.08194 7.47658 -1.83529
LeftFoot  -0.450767 0.21309 -2.20718
LeftToes  1.06246e-005 4.65868e-005 -8.65513e-006
293
root  -68.4203 41.5587 -1.55415 -26.1686 -86.1251 26.9318
RightUpLeg  -2.41855 -8.91657 -4.65717
RightLeg  7.69527 -9.43177 3.47421
RightFoot  -3.70213 0.122524 -2.26032
RightToes  0.000481921 0.542163 -0.142578
Spine  2.62232 -0.22691 1.19567
Spine1  8.61869 -1.2061 4.25187
HEad  -5.93357 1.07725 0.400954
LeftShoulder1  8.1696 -13.0277 -42.9588
LeftArm  -6.44964 16.1421 -16.0653
LeftForeArm  31.7558 -21.0352 -3.30536
LeftHand  -0.25398 0.0180481 5.50724
RightShoulder  4.45705 7.8663 33.2561
RightArm  -19.0053 -7.78879 24.01
RightForeArm  10.4635 11.4099 4.02297
RightHand  -1.17709 4.39127 -14.2499
LeftUpLeg  -3.33853 4.68499 3.30181
LeftLeg  4.13955 8.3262 -2.55443
LeftFoot  -0.428256 0.175484 -1.80932
LeftToes  1.06246e-005 4.65868e-005 -8.65513e-006
294
root  -68.7213 41.5779 -1.42387 -35.4555 -86.9495 35.9236
RightUpLeg  -1.57128 -8.81366 -4.89801
RightLeg  7.39882 -8.43983 3.40947
RightFoot  -3.88578 0.102552 -1.97111
RightToes  0.000481921 0.542163 -0.142578
Spine  2.02079 -0.261877 1.45391
Spine1  8.37943 -0.89509 2.92326
HEad  -5.48587 1.82387 -0.743522
LeftShoulder1  7.23617 -12.3025 -39.5517
LeftArm  -10.3515 16.4287 -12.578
LeftForeArm  29.9213 -14.6796 -3.74864
LeftHand  -0.25398 0.0180481 5.50724
RightShoulder  3.9672 7.17632 31.1884
RightArm  -20.9734 -7.77047 19.6473
RightForeArm  8.10534 8.74862 3.39072
RightHand  -1.21439 4.33914 -14.7609
LeftUpLeg  -2.01956 4.64407 3.33042
LeftLeg  3.52707 9.3731 -2.92129
LeftFoot  -0.699404 0.146007 -1.52318
LeftToes  1.06246e-005 4.65868e-005 -8.65513e-006
295
root  -69.0071 41.5977 -1.29802 -44.4544 -87.4809 44.7892
RightUpLeg  -0.898862 -8.68426 -5.04465
RightLeg  7.07869 -7.80742 3.29067
RightFoot  -3.98542 0.0878509 -1.78024
RightToes  0.000481921 0.542163 -0.142578
Spine  1.12321 -0.347731 1.20023
Spine1  8.58346 -0.945429 2.70683
HEad  -5.61925 2.56557 -2.45782
LeftShoulder1  6.34585 -11.3913 -36.5072
LeftArm  -12.9034 16.6216 -9.10544
LeftForeArm  26.9267 -10.0979 -3.40045
LeftHand  -0.25398 0.0180481 5.50724
RightShoulder  3.36846 6.27625 28.4365
RightArm  -23.2732 -7.14192 15.5447
RightForeArm  5.89815 6.84301 2.52739
RightHand  -1.21375 4.18394 -14.9781
LeftUpLeg  -0.970661 4.58352 3.31781
LeftLeg  2.95636 10.082 -3.12977
LeftFoot  -1.09964 0.161578 -1.73984
LeftToes  1.06246e-005 4.65868e-005 -8.65513e-006
296
root  -69.2614 41.6174 -1.19565 -50.816 -87.7642 51.2148
RightUpLeg  -0.45497 -8.57676 -5.12625
RightLeg  6.74477 -7.50224 3.19794
RightFoot  -4.02728 0.0749489 -1.5796
RightToes  0.000481921 0.542163 -0.142578
Spine  0.224466 -0.439794 0.65427
Spine1  8.6033 -1.14287 3.08149
HEad  -5.9286 3.14515 -4.25902
LeftShoulder1  5.61873 -10.5677 -33.8831
LeftArm  -13.6015 17.0106 -5.55906
LeftForeArm  23.2381 -7.53976 -2.69513
LeftHand  -0.25398 0.0180481 5.50724
RightShoulder  2.80049 5.33255 25.5999
RightArm  -25.4783 -6.66754 11.5199
RightForeArm  3.06743 6.12131 1.93037
RightHand  -1.2425 4.26613 -15.1961
LeftUpLeg  -0.245069 4.57098 3.29913
LeftLeg  2.28585 10.4174 -3.35848
LeftFoot  -1.24873 0.162887 -1.80779
LeftToes  1.06246e-005 4.65868e-005 -8.65513e-006
